# Blender v2.75 (sub 0) OBJ File: 'Base.blend'
# www.blender.org
mtllib 3.mtl
o Cube.001_Cube.010
v 4.042922 -1.441928 0.159516
v 4.042922 1.267478 0.159516
v 4.025872 -1.441928 -0.054109
v 4.025872 1.267478 -0.054109
v 5.363635 -1.441928 0.054108
v 5.363635 1.267478 0.054108
v 5.346585 -1.441928 -0.159516
v 5.346585 1.267478 -0.159516
v 4.024346 1.267478 0.197726
v 4.001472 1.267478 -0.088889
v 5.365160 1.267478 -0.197726
v 5.388036 1.267478 0.088889
v 4.024346 1.372375 0.197726
v 4.001472 1.372375 -0.088889
v 5.365160 1.372375 -0.197726
v 5.388036 1.372375 0.088889
v 2.683584 -1.441928 0.041041
v 2.683584 1.267478 0.041041
v 2.704801 -1.441928 -0.172210
v 2.704801 1.267478 -0.172210
v 4.001988 -1.441928 0.172211
v 4.001988 1.267478 0.172211
v 4.023204 -1.441928 -0.041040
v 4.023204 1.267478 -0.041040
v 2.658509 1.267478 0.075339
v 2.686975 1.267478 -0.210775
v 4.048280 1.267478 -0.075338
v 4.019814 1.267478 0.210777
v 2.658509 1.372375 0.075339
v 2.686975 1.372375 -0.210775
v 4.048280 1.372375 -0.075338
v 4.019814 1.372375 0.210777
v 1.340982 -1.441928 0.004179
v 1.340982 1.267478 0.004179
v 1.373883 -1.441928 -0.207584
v 1.373883 1.267478 -0.207584
v 2.650188 -1.441928 0.207585
v 2.650188 1.267478 0.207585
v 2.683088 -1.441928 -0.004178
v 2.683088 1.267478 -0.004178
v 1.314060 1.267478 0.037047
v 1.358202 1.267478 -0.247071
v 2.710011 1.267478 -0.037046
v 2.665868 1.267478 0.247072
v 1.314060 1.372375 0.037047
v 1.358202 1.372375 -0.247071
v 2.710011 1.372375 -0.037046
v 2.665868 1.372375 0.247072
v 0.042866 -1.441928 0.237034
v 0.042866 1.267478 0.237034
v 0.000154 -1.441928 0.027030
v 0.000154 1.267478 0.027030
v 1.341198 -1.441928 -0.027029
v 1.341198 1.267478 -0.027029
v 1.298486 -1.441928 -0.237033
v 1.298486 1.267478 -0.237033
v 0.029039 1.267478 0.277207
v -0.028267 1.267478 -0.004551
v 1.312313 1.267478 -0.277207
v 1.369619 1.267478 0.004552
v 0.029039 1.372375 0.277207
v -0.028267 1.372375 -0.004551
v 1.312313 1.372375 -0.277207
v 1.369619 1.372375 0.004552
v -1.332553 -1.441928 0.110715
v -1.332553 1.267478 0.110715
v -1.333706 -1.441928 -0.103586
v -1.333706 1.267478 -0.103586
v -0.007659 -1.441928 0.103587
v -0.007659 1.267478 0.103587
v -0.008812 -1.441928 -0.110714
v -0.008812 1.267478 -0.110714
v -1.353913 1.267478 0.147442
v -1.355460 1.267478 -0.140081
v 0.012547 1.267478 -0.147441
v 0.014094 1.267478 0.140082
v -1.353913 1.372375 0.147442
v -1.355460 1.372375 -0.140081
v 0.012547 1.372375 -0.147441
v 0.014094 1.372375 0.140082
v -2.680169 -1.441928 -0.062740
v -2.680169 1.267478 -0.062740
v -2.626321 -1.441928 -0.270168
v -2.626321 1.267478 -0.270168
v -1.397763 -1.441928 0.270169
v -1.397763 1.267478 0.270169
v -1.343915 -1.441928 0.062741
v -1.343915 1.267478 0.062741
v -2.710234 1.267478 -0.032720
v -2.637987 1.267478 -0.311022
v -1.313850 1.267478 0.032721
v -1.386097 1.267478 0.311023
v -2.710234 1.372375 -0.032720
v -2.637987 1.372375 -0.311022
v -1.313850 1.372375 0.032721
v -1.386097 1.372375 0.311023
v -4.019593 -1.441928 0.080746
v -4.019593 1.267478 0.080746
v -4.011077 -1.441928 -0.133389
v -4.011077 1.267478 -0.133389
v -2.695726 -1.441928 0.133389
v -2.695726 1.267478 0.133389
v -2.687211 -1.441928 -0.080745
v -2.687211 1.267478 -0.080745
v -4.042587 1.267478 0.116472
v -4.031163 1.267478 -0.170828
v -2.664217 1.267478 -0.116471
v -2.675641 1.267478 0.170829
v -4.042587 1.372375 0.116472
v -4.031163 1.372375 -0.170828
v -2.664217 1.372375 -0.116471
v -2.675641 1.372375 0.170829
v -5.362674 -1.441928 0.064981
v -5.362674 1.267478 0.064981
v -5.349101 -1.441928 -0.148893
v -5.349101 1.267478 -0.148893
v -4.040421 -1.441928 0.148894
v -4.040421 1.267478 0.148894
v -4.026848 -1.441928 -0.064980
v -4.026848 1.267478 -0.064980
v -5.386507 1.267478 0.100153
v -5.368296 1.267478 -0.186796
v -4.003016 1.267478 -0.100153
v -4.021227 1.267478 0.186797
v -5.386507 1.372374 0.100153
v -5.368296 1.372374 -0.186796
v -4.003016 1.372374 -0.100153
v -4.021227 1.372374 0.186797
v -6.699113 -1.441928 -0.103786
v -6.699113 1.267478 -0.103786
v -6.632587 -1.441928 -0.307502
v -6.632587 1.267478 -0.307502
v -5.439654 -1.441928 0.307503
v -5.439654 1.267478 0.307503
v -5.373128 -1.441928 0.103787
v -5.373128 1.267478 0.103787
v -6.730970 1.267478 -0.075675
v -6.641714 1.267478 -0.348997
v -5.341271 1.267478 0.075676
v -5.430528 1.267478 0.348998
v -6.730970 1.372374 -0.075675
v -6.641714 1.372374 -0.348997
v -5.341271 1.372374 0.075676
v -5.430528 1.372374 0.348998
v 5.368447 -1.441928 -0.067468
v 5.368447 1.267478 -0.067468
v 5.423762 -1.441928 -0.274510
v 5.423762 1.267478 -0.274510
v 6.648464 -1.441928 0.274510
v 6.648464 1.267478 0.274510
v 6.703779 -1.441928 0.067469
v 6.703779 1.267478 0.067469
v 5.338171 1.267478 -0.037661
v 5.412385 1.267478 -0.315445
v 6.734056 1.267478 0.037662
v 6.659842 1.267478 0.315446
v 5.338171 1.372375 -0.037661
v 5.412385 1.372375 -0.315445
v 6.734056 1.372375 0.037662
v 6.659842 1.372375 0.315446
vt 0.941928 0.000793
vt 0.961944 0.000793
vt 0.961944 0.270636
vt 0.941928 0.270636
vt 0.651245 0.272223
vt 0.774994 0.272223
vt 0.774994 0.542065
vt 0.651245 0.542065
vt 0.542065 0.792959
vt 0.542065 0.812975
vt 0.272223 0.812975
vt 0.272223 0.792959
vt 0.272223 0.667401
vt 0.272223 0.543652
vt 0.542065 0.543652
vt 0.542065 0.667401
vt 0.108686 0.982612
vt 0.088377 0.982612
vt 0.088377 0.850658
vt 0.108686 0.850658
vt 0.248912 0.823970
vt 0.228603 0.823970
vt 0.225134 0.821823
vt 0.252382 0.821823
vt 0.681405 0.895807
vt 0.681405 0.924030
vt 0.671464 0.924030
vt 0.671464 0.895807
vt 0.228603 0.955924
vt 0.225134 0.958071
vt 0.248912 0.955924
vt 0.252382 0.958071
vt 0.813249 0.951329
vt 0.786001 0.951329
vt 0.786001 0.815081
vt 0.813249 0.815081
vt 0.338642 0.864779
vt 0.338642 0.999065
vt 0.328701 0.999065
vt 0.328701 0.864779
vt 0.317174 0.999065
vt 0.317174 0.864780
vt 0.327114 0.864779
vt 0.327114 0.999065
vt 0.669877 0.905747
vt 0.641653 0.905747
vt 0.641653 0.895807
vt 0.669877 0.895807
vt 0.813249 0.813494
vt 0.792941 0.813494
vt 0.792941 0.543652
vt 0.813249 0.543652
vt 0.127934 0.000793
vt 0.253487 0.000793
vt 0.253487 0.270636
vt 0.127934 0.270636
vt 0.835144 0.813494
vt 0.814836 0.813494
vt 0.814836 0.543652
vt 0.835144 0.543652
vt 0.126347 0.270636
vt 0.000793 0.270636
vt 0.000793 0.000793
vt 0.126347 0.000794
vt 0.987549 0.675606
vt 0.967240 0.675606
vt 0.967240 0.543652
vt 0.987549 0.543652
vt 0.934683 0.949183
vt 0.954992 0.949183
vt 0.958461 0.951329
vt 0.931213 0.951329
vt 0.384753 0.864779
vt 0.384753 0.893415
vt 0.374812 0.893415
vt 0.374812 0.864780
vt 0.954992 0.817228
vt 0.958461 0.815081
vt 0.934683 0.817229
vt 0.931213 0.815081
vt 0.572487 0.871164
vt 0.572487 0.843916
vt 0.708735 0.843916
vt 0.708735 0.871164
vt 0.716803 0.951324
vt 0.716803 0.815081
vt 0.726744 0.815081
vt 0.726744 0.951324
vt 0.914873 0.000793
vt 0.914873 0.137036
vt 0.904932 0.137036
vt 0.904932 0.000793
vt 0.396280 0.864779
vt 0.396280 0.893414
vt 0.386340 0.893414
vt 0.386340 0.864779
vt 0.902378 0.543652
vt 0.922646 0.543652
vt 0.922646 0.813494
vt 0.902378 0.813494
vt 0.000793 0.651514
vt 0.000793 0.526211
vt 0.270636 0.526212
vt 0.270636 0.651514
vt 0.898449 0.272223
vt 0.918716 0.272223
vt 0.918716 0.542065
vt 0.898449 0.542065
vt 0.000793 0.524625
vt 0.000793 0.399322
vt 0.270636 0.399322
vt 0.270636 0.524624
vt 0.021102 0.982612
vt 0.000794 0.982612
vt 0.000793 0.850658
vt 0.021102 0.850658
vt 0.926157 0.817228
vt 0.905848 0.817228
vt 0.902378 0.815081
vt 0.929626 0.815081
vt 0.582428 0.895807
vt 0.582428 0.924385
vt 0.572487 0.924385
vt 0.572487 0.895807
vt 0.905848 0.949182
vt 0.902378 0.951329
vt 0.926157 0.949182
vt 0.929626 0.951329
vt 0.167464 0.821823
vt 0.194712 0.821823
vt 0.194712 0.958071
vt 0.167464 0.958071
vt 0.984573 0.136764
vt 0.984573 0.000793
vt 0.994514 0.000794
vt 0.994514 0.136764
vt 0.991885 0.815081
vt 0.991885 0.951052
vt 0.981944 0.951052
vt 0.981944 0.815081
vt 0.584015 0.924385
vt 0.584015 0.895807
vt 0.593955 0.895807
vt 0.593955 0.924385
vt 0.963531 0.000794
vt 0.982986 0.000793
vt 0.982986 0.270636
vt 0.963531 0.270636
vt 0.881476 0.270636
vt 0.761195 0.270636
vt 0.761195 0.000793
vt 0.881476 0.000793
vt 0.983162 0.542065
vt 0.963707 0.542065
vt 0.963707 0.272223
vt 0.983162 0.272223
vt 0.896862 0.542065
vt 0.776581 0.542065
vt 0.776581 0.272223
vt 0.896862 0.272223
vt 0.980357 0.947035
vt 0.960048 0.947035
vt 0.960048 0.815081
vt 0.980357 0.815081
vt 0.406324 0.859723
vt 0.406324 0.839414
vt 0.408471 0.835944
vt 0.408471 0.863193
vt 0.701270 0.934767
vt 0.701271 0.907335
vt 0.711211 0.907335
vt 0.711211 0.934767
vt 0.274370 0.839414
vt 0.272223 0.835944
vt 0.274370 0.859723
vt 0.272223 0.863192
vt 0.223547 0.958071
vt 0.196299 0.958071
vt 0.196299 0.821823
vt 0.223547 0.821823
vt 0.984573 0.268873
vt 0.984573 0.138351
vt 0.994514 0.138351
vt 0.994514 0.268873
vt 0.904932 0.269145
vt 0.904932 0.138623
vt 0.914873 0.138623
vt 0.914873 0.269145
vt 0.396280 0.925188
vt 0.396280 0.952621
vt 0.386340 0.952621
vt 0.386339 0.925188
vt 0.270636 0.778419
vt 0.270636 0.798635
vt 0.000793 0.798635
vt 0.000793 0.778419
vt 0.509157 0.000793
vt 0.634141 0.000794
vt 0.634141 0.270636
vt 0.509157 0.270636
vt 0.940519 0.542065
vt 0.920303 0.542065
vt 0.920303 0.272223
vt 0.940519 0.272223
vt 0.524191 0.542065
vt 0.399207 0.542065
vt 0.399207 0.272223
vt 0.524191 0.272223
vt 0.130582 0.982612
vt 0.110273 0.982612
vt 0.110273 0.850658
vt 0.130582 0.850658
vt 0.518287 0.970046
vt 0.538595 0.970046
vt 0.542065 0.972193
vt 0.514817 0.972193
vt 0.617011 0.895807
vt 0.617011 0.924312
vt 0.607070 0.924312
vt 0.607070 0.895807
vt 0.538595 0.838091
vt 0.542065 0.835944
vt 0.518287 0.838091
vt 0.514817 0.835944
vt 0.892815 0.951329
vt 0.865567 0.951329
vt 0.865566 0.815081
vt 0.892815 0.815081
vt 0.989136 0.679277
vt 0.989136 0.543652
vt 0.999076 0.543652
vt 0.999076 0.679277
vt 0.994690 0.272223
vt 0.994690 0.407848
vt 0.984749 0.407848
vt 0.984749 0.272223
vt 0.605483 0.895807
vt 0.605483 0.924312
vt 0.595542 0.924312
vt 0.595542 0.895807
vt 0.940341 0.270636
vt 0.920303 0.270636
vt 0.920303 0.000793
vt 0.940341 0.000793
vt 0.635728 0.000794
vt 0.759608 0.000793
vt 0.759608 0.270636
vt 0.635728 0.270636
vt 0.924233 0.543652
vt 0.944270 0.543652
vt 0.944270 0.813494
vt 0.924233 0.813494
vt 0.525778 0.272223
vt 0.649658 0.272223
vt 0.649658 0.542065
vt 0.525778 0.542065
vt 0.044585 0.850658
vt 0.064894 0.850658
vt 0.064894 0.982612
vt 0.044585 0.982612
vt 0.547122 0.949183
vt 0.567430 0.949183
vt 0.570900 0.951329
vt 0.543652 0.951329
vt 0.630126 0.924060
vt 0.630126 0.895807
vt 0.640066 0.895807
vt 0.640066 0.924060
vt 0.567430 0.817228
vt 0.570900 0.815081
vt 0.547122 0.817228
vt 0.543652 0.815081
vt 0.728331 0.815081
vt 0.755579 0.815081
vt 0.755579 0.951329
vt 0.728331 0.951329
vt 0.305646 0.999206
vt 0.305646 0.864779
vt 0.315587 0.864779
vt 0.315587 0.999206
vt 0.304059 0.864779
vt 0.304059 0.999206
vt 0.294119 0.999206
vt 0.294119 0.864779
vt 0.628539 0.895807
vt 0.628539 0.924060
vt 0.618598 0.924060
vt 0.618598 0.895807
vt 0.903345 0.270636
vt 0.883062 0.270636
vt 0.883062 0.000794
vt 0.903345 0.000793
vt 0.397620 0.542065
vt 0.272223 0.542065
vt 0.272223 0.272223
vt 0.397620 0.272223
vt 0.880508 0.543652
vt 0.900791 0.543652
vt 0.900791 0.813494
vt 0.880508 0.813494
vt 0.507570 0.270636
vt 0.382173 0.270636
vt 0.382173 0.000793
vt 0.507570 0.000793
vt 0.022689 0.850658
vt 0.042998 0.850658
vt 0.042998 0.982612
vt 0.022689 0.982612
vt 0.574634 0.818551
vt 0.574634 0.838860
vt 0.572487 0.842329
vt 0.572487 0.815081
vt 0.396280 0.895002
vt 0.396280 0.923601
vt 0.386340 0.923601
vt 0.386340 0.895002
vt 0.706588 0.838860
vt 0.708735 0.842329
vt 0.706588 0.818551
vt 0.708735 0.815081
vt 0.466141 0.972193
vt 0.438893 0.972193
vt 0.438893 0.835945
vt 0.466141 0.835944
vt 0.506503 0.835944
vt 0.506503 0.972018
vt 0.496563 0.972018
vt 0.496563 0.835944
vt 0.572487 0.872751
vt 0.708561 0.872751
vt 0.708561 0.882692
vt 0.572487 0.882692
vt 0.384753 0.895002
vt 0.384753 0.923601
vt 0.374812 0.923601
vt 0.374812 0.895002
vt 0.857033 0.813494
vt 0.836731 0.813494
vt 0.836731 0.543652
vt 0.857033 0.543652
vt 0.270636 0.272223
vt 0.270636 0.397735
vt 0.000793 0.397735
vt 0.000793 0.272223
vt 0.858620 0.543652
vt 0.878921 0.543652
vt 0.878921 0.813494
vt 0.858620 0.813494
vt 0.380586 0.270636
vt 0.255074 0.270636
vt 0.255074 0.000793
vt 0.380586 0.000793
vt 0.987549 0.809147
vt 0.967240 0.809147
vt 0.967240 0.677193
vt 0.987549 0.677193
vt 0.840201 0.949182
vt 0.860510 0.949182
vt 0.863980 0.951329
vt 0.836731 0.951329
vt 0.397867 0.923627
vt 0.397867 0.895001
vt 0.407808 0.895001
vt 0.407808 0.923627
vt 0.860510 0.817228
vt 0.863980 0.815081
vt 0.840201 0.817228
vt 0.836731 0.815081
vt 0.000793 0.849071
vt 0.000793 0.821823
vt 0.137042 0.821823
vt 0.137042 0.849071
vt 0.263909 0.821823
vt 0.263909 0.958021
vt 0.253969 0.958021
vt 0.253969 0.821823
vt 0.814836 0.951280
vt 0.814836 0.815081
vt 0.824777 0.815081
vt 0.824777 0.951280
vt 0.397867 0.893405
vt 0.397867 0.864780
vt 0.407808 0.864779
vt 0.407808 0.893405
vt 0.965653 0.813494
vt 0.945857 0.813494
vt 0.945857 0.543652
vt 0.965653 0.543652
vt 0.668971 0.543652
vt 0.791354 0.543652
vt 0.791354 0.813494
vt 0.668971 0.813494
vt 0.542065 0.814562
vt 0.542065 0.834358
vt 0.272223 0.834358
vt 0.272223 0.814562
vt 0.542065 0.668988
vt 0.542065 0.791372
vt 0.272223 0.791372
vt 0.272223 0.668988
vt 0.272223 0.864779
vt 0.292532 0.864779
vt 0.292532 0.996734
vt 0.272223 0.996734
vt 0.142098 0.955924
vt 0.162407 0.955924
vt 0.165877 0.958071
vt 0.138629 0.958071
vt 0.653181 0.935247
vt 0.653181 0.907334
vt 0.663122 0.907334
vt 0.663122 0.935247
vt 0.162407 0.823969
vt 0.165877 0.821823
vt 0.142098 0.823969
vt 0.138629 0.821823
vt 0.467728 0.835944
vt 0.494976 0.835944
vt 0.494976 0.972193
vt 0.467728 0.972193
vt 0.363284 0.997583
vt 0.363284 0.864779
vt 0.373225 0.864779
vt 0.373225 0.997583
vt 0.572487 0.884279
vt 0.705291 0.884279
vt 0.705291 0.894220
vt 0.572487 0.894220
vt 0.682992 0.935247
vt 0.682992 0.907335
vt 0.692932 0.907335
vt 0.692932 0.935247
vt 0.270636 0.800222
vt 0.270636 0.820236
vt 0.000794 0.820236
vt 0.000793 0.800222
vt 0.543652 0.543652
vt 0.667384 0.543652
vt 0.667384 0.813494
vt 0.543652 0.813494
vt 0.962120 0.542065
vt 0.942106 0.542065
vt 0.942106 0.272223
vt 0.962120 0.272223
vt 0.000794 0.776832
vt 0.000793 0.653101
vt 0.270636 0.653101
vt 0.270636 0.776832
vt 0.086790 0.982612
vt 0.066481 0.982612
vt 0.066481 0.850658
vt 0.086790 0.850658
vt 0.413527 0.970046
vt 0.433836 0.970046
vt 0.437306 0.972193
vt 0.410058 0.972193
vt 0.641653 0.935554
vt 0.641653 0.907335
vt 0.651594 0.907334
vt 0.651594 0.935554
vt 0.433836 0.838091
vt 0.437306 0.835944
vt 0.413527 0.838091
vt 0.410058 0.835944
vt 0.757166 0.815081
vt 0.784414 0.815081
vt 0.784414 0.951329
vt 0.757166 0.951329
vt 0.350170 0.864779
vt 0.350170 0.999046
vt 0.340229 0.999046
vt 0.340229 0.864780
vt 0.361697 0.864779
vt 0.361697 0.999046
vt 0.351757 0.999046
vt 0.351757 0.864780
vt 0.682992 0.895807
vt 0.711211 0.895807
vt 0.711211 0.905748
vt 0.682992 0.905748
vn -0.996800 0.000000 0.079600
vn -0.079600 0.000000 -0.996800
vn 0.996800 0.000000 -0.079600
vn 0.079600 0.000000 0.996800
vn 0.000000 -1.000000 0.000000
vn 0.000000 1.000000 -0.000000
vn -0.995100 0.000000 -0.099000
vn 0.099000 0.000000 -0.995100
vn 0.995100 0.000000 0.099000
vn -0.099000 0.000000 0.995100
vn -0.988100 0.000000 -0.153500
vn 0.153500 0.000000 -0.988100
vn 0.988100 0.000000 0.153500
vn -0.153500 0.000000 0.988100
vn -0.979900 0.000000 0.199300
vn -0.199300 0.000000 -0.979900
vn 0.979900 0.000000 -0.199300
vn 0.199300 0.000000 0.979900
vn -1.000000 0.000000 0.005400
vn -0.005400 0.000000 -1.000000
vn 1.000000 0.000000 -0.005400
vn 0.005400 0.000000 1.000000
vn -0.967900 0.000000 -0.251300
vn 0.251300 0.000000 -0.967900
vn 0.967900 0.000000 0.251300
vn -0.251300 0.000000 0.967900
vn -0.999200 0.000000 -0.039700
vn 0.039700 0.000000 -0.999200
vn 0.999200 0.000000 0.039700
vn -0.039700 0.000000 0.999200
vn -0.998000 0.000000 -0.063300
vn 0.063300 0.000000 -0.998000
vn 0.998000 0.000000 0.063300
vn -0.063300 0.000000 0.998000
vn -0.950600 0.000000 -0.310400
vn 0.310400 0.000000 -0.950600
vn 0.950600 0.000000 0.310400
vn -0.310400 0.000000 0.950600
vn -0.966100 0.000000 -0.258100
vn 0.258100 0.000000 -0.966100
vn 0.966100 0.000000 0.258100
vn -0.258100 0.000000 0.966100
usemtl None
s off
f 2/1/1 4/2/1 3/3/1 1/4/1
f 4/5/2 8/6/2 7/7/2 3/8/2
f 8/9/3 6/10/3 5/11/3 7/12/3
f 6/13/4 2/14/4 1/15/4 5/16/4
f 1/17/5 3/18/5 7/19/5 5/20/5
f 4/21/5 2/22/5 9/23/5 10/24/5
f 10/25/1 9/26/1 13/27/1 14/28/1
f 2/22/5 6/29/5 12/30/5 9/23/5
f 8/31/5 4/21/5 10/24/5 11/32/5
f 6/29/5 8/31/5 11/32/5 12/30/5
f 16/33/6 15/34/6 14/35/6 13/36/6
f 9/37/4 12/38/4 16/39/4 13/40/4
f 11/41/2 10/42/2 14/43/2 15/44/2
f 12/45/3 11/46/3 15/47/3 16/48/3
f 18/49/7 20/50/7 19/51/7 17/52/7
f 20/53/8 24/54/8 23/55/8 19/56/8
f 24/57/9 22/58/9 21/59/9 23/60/9
f 22/61/10 18/62/10 17/63/10 21/64/10
f 17/65/5 19/66/5 23/67/5 21/68/5
f 20/69/5 18/70/5 25/71/5 26/72/5
f 26/73/7 25/74/7 29/75/7 30/76/7
f 18/70/5 22/77/5 28/78/5 25/71/5
f 24/79/5 20/69/5 26/72/5 27/80/5
f 22/77/5 24/79/5 27/80/5 28/78/5
f 32/81/6 31/82/6 30/83/6 29/84/6
f 25/85/10 28/86/10 32/87/10 29/88/10
f 27/89/8 26/90/8 30/91/8 31/92/8
f 28/93/9 27/94/9 31/95/9 32/96/9
f 34/97/11 36/98/11 35/99/11 33/100/11
f 36/101/12 40/102/12 39/103/12 35/104/12
f 40/105/13 38/106/13 37/107/13 39/108/13
f 38/109/14 34/110/14 33/111/14 37/112/14
f 33/113/5 35/114/5 39/115/5 37/116/5
f 36/117/5 34/118/5 41/119/5 42/120/5
f 42/121/11 41/122/11 45/123/11 46/124/11
f 34/118/5 38/125/5 44/126/5 41/119/5
f 40/127/5 36/117/5 42/120/5 43/128/5
f 38/125/5 40/127/5 43/128/5 44/126/5
f 48/129/6 47/130/6 46/131/6 45/132/6
f 41/133/14 44/134/14 48/135/14 45/136/14
f 43/137/12 42/138/12 46/139/12 47/140/12
f 44/141/13 43/142/13 47/143/13 48/144/13
f 50/145/15 52/146/15 51/147/15 49/148/15
f 52/149/16 56/150/16 55/151/16 51/152/16
f 56/153/17 54/154/17 53/155/17 55/156/17
f 54/157/18 50/158/18 49/159/18 53/160/18
f 49/161/5 51/162/5 55/163/5 53/164/5
f 52/165/5 50/166/5 57/167/5 58/168/5
f 58/169/15 57/170/15 61/171/15 62/172/15
f 50/166/5 54/173/5 60/174/5 57/167/5
f 56/175/5 52/165/5 58/168/5 59/176/5
f 54/173/5 56/175/5 59/176/5 60/174/5
f 64/177/6 63/178/6 62/179/6 61/180/6
f 57/181/18 60/182/18 64/183/18 61/184/18
f 59/185/16 58/186/16 62/187/16 63/188/16
f 60/189/17 59/190/17 63/191/17 64/192/17
f 66/193/19 68/194/19 67/195/19 65/196/19
f 68/197/20 72/198/20 71/199/20 67/200/20
f 72/201/21 70/202/21 69/203/21 71/204/21
f 70/205/22 66/206/22 65/207/22 69/208/22
f 65/209/5 67/210/5 71/211/5 69/212/5
f 68/213/5 66/214/5 73/215/5 74/216/5
f 74/217/19 73/218/19 77/219/19 78/220/19
f 66/214/5 70/221/5 76/222/5 73/215/5
f 72/223/5 68/213/5 74/216/5 75/224/5
f 70/221/5 72/223/5 75/224/5 76/222/5
f 80/225/6 79/226/6 78/227/6 77/228/6
f 73/229/22 76/230/22 80/231/22 77/232/22
f 75/233/20 74/234/20 78/235/20 79/236/20
f 76/237/21 75/238/21 79/239/21 80/240/21
f 82/241/23 84/242/23 83/243/23 81/244/23
f 84/245/24 88/246/24 87/247/24 83/248/24
f 88/249/25 86/250/25 85/251/25 87/252/25
f 86/253/26 82/254/26 81/255/26 85/256/26
f 81/257/5 83/258/5 87/259/5 85/260/5
f 84/261/5 82/262/5 89/263/5 90/264/5
f 90/265/23 89/266/23 93/267/23 94/268/23
f 82/262/5 86/269/5 92/270/5 89/263/5
f 88/271/5 84/261/5 90/264/5 91/272/5
f 86/269/5 88/271/5 91/272/5 92/270/5
f 96/273/6 95/274/6 94/275/6 93/276/6
f 89/277/26 92/278/26 96/279/26 93/280/26
f 91/281/24 90/282/24 94/283/24 95/284/24
f 92/285/25 91/286/25 95/287/25 96/288/25
f 98/289/27 100/290/27 99/291/27 97/292/27
f 100/293/28 104/294/28 103/295/28 99/296/28
f 104/297/29 102/298/29 101/299/29 103/300/29
f 102/301/30 98/302/30 97/303/30 101/304/30
f 97/305/5 99/306/5 103/307/5 101/308/5
f 100/309/5 98/310/5 105/311/5 106/312/5
f 106/313/27 105/314/27 109/315/27 110/316/27
f 98/310/5 102/317/5 108/318/5 105/311/5
f 104/319/5 100/309/5 106/312/5 107/320/5
f 102/317/5 104/319/5 107/320/5 108/318/5
f 112/321/6 111/322/6 110/323/6 109/324/6
f 105/325/30 108/326/30 112/327/30 109/328/30
f 107/329/28 106/330/28 110/331/28 111/332/28
f 108/333/29 107/334/29 111/335/29 112/336/29
f 114/337/31 116/338/31 115/339/31 113/340/31
f 116/341/32 120/342/32 119/343/32 115/344/32
f 120/345/33 118/346/33 117/347/33 119/348/33
f 118/349/34 114/350/34 113/351/34 117/352/34
f 113/353/5 115/354/5 119/355/5 117/356/5
f 116/357/5 114/358/5 121/359/5 122/360/5
f 122/361/31 121/362/31 125/363/31 126/364/31
f 114/358/5 118/365/5 124/366/5 121/359/5
f 120/367/5 116/357/5 122/360/5 123/368/5
f 118/365/5 120/367/5 123/368/5 124/366/5
f 128/369/6 127/370/6 126/371/6 125/372/6
f 121/373/34 124/374/34 128/375/34 125/376/34
f 123/377/32 122/378/32 126/379/32 127/380/32
f 124/381/33 123/382/33 127/383/33 128/384/33
f 130/385/35 132/386/35 131/387/35 129/388/35
f 132/389/36 136/390/36 135/391/36 131/392/36
f 136/393/37 134/394/37 133/395/37 135/396/37
f 134/397/38 130/398/38 129/399/38 133/400/38
f 129/401/5 131/402/5 135/403/5 133/404/5
f 132/405/5 130/406/5 137/407/5 138/408/5
f 138/409/35 137/410/35 141/411/35 142/412/35
f 130/406/5 134/413/5 140/414/5 137/407/5
f 136/415/5 132/405/5 138/408/5 139/416/5
f 134/413/5 136/415/5 139/416/5 140/414/5
f 144/417/6 143/418/6 142/419/6 141/420/6
f 137/421/38 140/422/38 144/423/38 141/424/38
f 139/425/36 138/426/36 142/427/36 143/428/36
f 140/429/37 139/430/37 143/431/37 144/432/37
f 146/433/39 148/434/39 147/435/39 145/436/39
f 148/437/40 152/438/40 151/439/40 147/440/40
f 152/441/41 150/442/41 149/443/41 151/444/41
f 150/445/42 146/446/42 145/447/42 149/448/42
f 145/449/5 147/450/5 151/451/5 149/452/5
f 148/453/5 146/454/5 153/455/5 154/456/5
f 154/457/39 153/458/39 157/459/39 158/460/39
f 146/454/5 150/461/5 156/462/5 153/455/5
f 152/463/5 148/453/5 154/456/5 155/464/5
f 150/461/5 152/463/5 155/464/5 156/462/5
f 160/465/6 159/466/6 158/467/6 157/468/6
f 153/469/42 156/470/42 160/471/42 157/472/42
f 155/473/40 154/474/40 158/475/40 159/476/40
f 156/477/41 155/478/41 159/479/41 160/480/41
