# Blender v2.75 (sub 0) OBJ File: 'Base.blend'
# www.blender.org
mtllib 5.mtl
o Cube.004_Cube.014
v 5.948904 -1.284365 0.097046
v 5.948904 1.141397 0.097046
v 5.948904 -1.284365 0.012664
v 5.948904 1.141397 0.012664
v 6.033286 -1.284365 0.097046
v 6.033286 1.141397 0.097046
v 6.033286 -1.284365 0.012664
v 6.033286 1.141397 0.012664
v 4.742237 -1.284365 0.097046
v 4.742237 1.141397 0.097046
v 4.742237 -1.284365 0.012664
v 4.742237 1.141397 0.012664
v 4.826620 -1.284365 0.097046
v 4.826620 1.141397 0.097046
v 4.826620 -1.284365 0.012664
v 4.826620 1.141397 0.012664
v 3.535571 -1.284365 0.097046
v 3.535571 1.141397 0.097046
v 3.535571 -1.284365 0.012664
v 3.535571 1.141397 0.012664
v 3.619953 -1.284365 0.097046
v 3.619953 1.141397 0.097046
v 3.619953 -1.284365 0.012664
v 3.619953 1.141397 0.012664
v 2.328904 -1.284365 0.097046
v 2.328904 1.141397 0.097046
v 2.328904 -1.284365 0.012664
v 2.328904 1.141397 0.012664
v 2.413286 -1.284365 0.097046
v 2.413286 1.141397 0.097046
v 2.413286 -1.284365 0.012664
v 2.413286 1.141397 0.012664
v 1.122237 -1.284365 0.097046
v 1.122237 1.141397 0.097046
v 1.122237 -1.284365 0.012664
v 1.122237 1.141397 0.012664
v 1.206619 -1.284365 0.097046
v 1.206619 1.141397 0.097046
v 1.206619 -1.284365 0.012664
v 1.206619 1.141397 0.012664
v -0.084430 -1.284365 0.097046
v -0.084430 1.141397 0.097046
v -0.084430 -1.284365 0.012664
v -0.084430 1.141397 0.012664
v -0.000048 -1.284365 0.097046
v -0.000048 1.141397 0.097046
v -0.000048 -1.284365 0.012664
v -0.000048 1.141397 0.012664
v -1.291097 -1.284365 0.097046
v -1.291097 1.141397 0.097046
v -1.291097 -1.284365 0.012664
v -1.291097 1.141397 0.012664
v -1.206715 -1.284365 0.097046
v -1.206715 1.141397 0.097046
v -1.206715 -1.284365 0.012664
v -1.206715 1.141397 0.012664
v -2.497764 -1.284365 0.097046
v -2.497764 1.141397 0.097046
v -2.497764 -1.284365 0.012664
v -2.497764 1.141397 0.012664
v -2.413381 -1.284365 0.097046
v -2.413381 1.141397 0.097046
v -2.413381 -1.284365 0.012664
v -2.413381 1.141397 0.012664
v -3.704431 -1.284365 0.097046
v -3.704431 1.141397 0.097046
v -3.704431 -1.284365 0.012664
v -3.704431 1.141397 0.012664
v -3.620048 -1.284365 0.097046
v -3.620048 1.141397 0.097046
v -3.620048 -1.284365 0.012664
v -3.620048 1.141397 0.012664
v -4.911098 -1.284365 0.097046
v -4.911098 1.141397 0.097046
v -4.911098 -1.284365 0.012664
v -4.911098 1.141397 0.012664
v -4.826715 -1.284365 0.097046
v -4.826715 1.141397 0.097046
v -4.826715 -1.284365 0.012664
v -4.826715 1.141397 0.012664
v -6.117765 -1.284365 0.097046
v -6.117765 1.141397 0.097046
v -6.117765 -1.284365 0.012664
v -6.117765 1.141397 0.012664
v -6.033382 -1.284365 0.097046
v -6.033382 1.141397 0.097046
v -6.033382 -1.284365 0.012664
v -6.033382 1.141397 0.012664
v 5.948904 -1.284365 -0.013763
v 5.948904 1.141397 -0.013763
v 5.948904 -1.284365 -0.098145
v 5.948904 1.141397 -0.098145
v 6.033286 -1.284365 -0.013763
v 6.033286 1.141397 -0.013763
v 6.033286 -1.284365 -0.098145
v 6.033286 1.141397 -0.098145
v 4.742237 -1.284365 -0.013763
v 4.742237 1.141397 -0.013763
v 4.742237 -1.284365 -0.098145
v 4.742237 1.141397 -0.098145
v 4.826620 -1.284365 -0.013763
v 4.826620 1.141397 -0.013763
v 4.826620 -1.284365 -0.098145
v 4.826620 1.141397 -0.098145
v 3.535571 -1.284365 -0.013763
v 3.535571 1.141397 -0.013763
v 3.535571 -1.284365 -0.098145
v 3.535571 1.141397 -0.098145
v 3.619953 -1.284365 -0.013763
v 3.619953 1.141397 -0.013763
v 3.619953 -1.284365 -0.098145
v 3.619953 1.141397 -0.098145
v 2.328904 -1.284365 -0.013763
v 2.328904 1.141397 -0.013763
v 2.328904 -1.284365 -0.098145
v 2.328904 1.141397 -0.098145
v 2.413286 -1.284365 -0.013763
v 2.413286 1.141397 -0.013763
v 2.413286 -1.284365 -0.098145
v 2.413286 1.141397 -0.098145
v 1.122237 -1.284365 -0.013763
v 1.122237 1.141397 -0.013763
v 1.122237 -1.284365 -0.098145
v 1.122237 1.141397 -0.098145
v 1.206619 -1.284365 -0.013763
v 1.206619 1.141397 -0.013763
v 1.206619 -1.284365 -0.098145
v 1.206619 1.141397 -0.098145
v -0.084430 -1.284365 -0.013763
v -0.084430 1.141397 -0.013763
v -0.084430 -1.284365 -0.098145
v -0.084430 1.141397 -0.098145
v -0.000048 -1.284365 -0.013763
v -0.000048 1.141397 -0.013763
v -0.000048 -1.284365 -0.098145
v -0.000048 1.141397 -0.098145
v -1.291097 -1.284365 -0.013763
v -1.291097 1.141397 -0.013763
v -1.291097 -1.284365 -0.098145
v -1.291097 1.141397 -0.098145
v -1.206715 -1.284365 -0.013763
v -1.206715 1.141397 -0.013763
v -1.206715 -1.284365 -0.098145
v -1.206715 1.141397 -0.098145
v -2.497764 -1.284365 -0.013763
v -2.497764 1.141397 -0.013763
v -2.497764 -1.284365 -0.098145
v -2.497764 1.141397 -0.098145
v -2.413381 -1.284365 -0.013763
v -2.413381 1.141397 -0.013763
v -2.413381 -1.284365 -0.098145
v -2.413381 1.141397 -0.098145
v -3.704431 -1.284365 -0.013763
v -3.704431 1.141397 -0.013763
v -3.704431 -1.284365 -0.098145
v -3.704431 1.141397 -0.098145
v -3.620048 -1.284365 -0.013763
v -3.620048 1.141397 -0.013763
v -3.620048 -1.284365 -0.098145
v -3.620048 1.141397 -0.098145
v -4.911098 -1.284365 -0.013763
v -4.911098 1.141397 -0.013763
v -4.911098 -1.284365 -0.098145
v -4.911098 1.141397 -0.098145
v -4.826715 -1.284365 -0.013763
v -4.826715 1.141397 -0.013763
v -4.826715 -1.284365 -0.098145
v -4.826715 1.141397 -0.098145
v -6.117765 -1.284365 -0.013763
v -6.117765 1.141397 -0.013763
v -6.117765 -1.284365 -0.098145
v -6.117765 1.141397 -0.098145
v -6.033382 -1.284365 -0.013763
v -6.033382 1.141397 -0.013763
v -6.033382 -1.284365 -0.098145
v -6.033382 1.141397 -0.098145
v -6.744869 -0.958383 0.056588
v -6.744869 1.117992 0.073149
v -6.744869 -0.958383 -0.028722
v -6.744869 1.117992 -0.062006
v 6.748274 -0.958383 0.069472
v 6.748274 1.117992 0.073149
v 6.748274 -0.958383 -0.052914
v 6.748274 1.117992 -0.062006
v -6.744869 -1.263607 -0.061350
v -6.744869 -1.263607 0.072493
v 6.748274 -1.263607 -0.061350
v 6.748274 -1.263607 0.072493
v -6.875214 1.117992 0.116563
v -6.875214 1.117992 -0.105420
v 6.878620 1.117992 -0.105420
v 6.878620 1.117992 0.116563
v -6.875214 1.198857 0.116563
v -6.875214 1.198857 -0.105420
v 6.878620 1.198857 -0.105420
v 6.878620 1.198857 0.116563
vt 0.000000 0.000000
vt 0.904624 0.000000
vt 0.923164 0.000000
vt 0.923164 0.212989
vt 0.904624 0.212989
vt 0.000000 1.000000
vt 0.297300 0.000000
vt 0.297300 1.000000
vt 0.904624 0.242984
vt 0.923164 0.242984
vt 0.923164 0.455973
vt 0.904624 0.455973
vt 0.594601 0.000000
vt 0.594601 1.000000
vt 0.788031 0.000000
vt 0.788031 1.000000
vt 0.729734 1.000000
vt 0.729734 0.000000
vt 0.981460 0.485968
vt 0.846328 0.485968
vt 0.981460 0.242984
vt 0.846328 0.242984
vt 0.846327 0.000000
vt 0.846328 1.000000
vt 0.981460 0.000000
vt 1.000000 0.000000
vt 1.000000 1.000000
vt 0.981461 1.000000
vn -1.000000 0.000000 0.000000
vn 0.000000 0.000000 -1.000000
vn 1.000000 0.000000 0.000000
vn 0.000000 0.000000 1.000000
vn 0.000000 -1.000000 0.000000
vn 0.000000 1.000000 0.000000
vn -0.000900 -0.010200 -0.999900
vn -0.000500 -0.004900 1.000000
vn -0.000500 0.031000 0.999500
vn -0.000900 0.067100 -0.997700
usemtl None
s off
f 2/1/1 4/1/1 3/1/1 1/1/1
f 4/1/2 8/1/2 7/1/2 3/1/2
f 8/1/3 6/1/3 5/1/3 7/1/3
f 6/1/4 2/1/4 1/1/4 5/1/4
f 1/1/5 3/1/5 7/1/5 5/1/5
f 6/1/6 8/1/6 4/1/6 2/1/6
f 10/1/1 12/1/1 11/1/1 9/1/1
f 12/1/2 16/1/2 15/1/2 11/1/2
f 16/1/3 14/1/3 13/1/3 15/1/3
f 14/1/4 10/1/4 9/1/4 13/1/4
f 9/1/5 11/1/5 15/1/5 13/1/5
f 14/1/6 16/1/6 12/1/6 10/1/6
f 18/1/1 20/1/1 19/1/1 17/1/1
f 20/1/2 24/1/2 23/1/2 19/1/2
f 24/1/3 22/1/3 21/1/3 23/1/3
f 22/1/4 18/1/4 17/1/4 21/1/4
f 17/1/5 19/1/5 23/1/5 21/1/5
f 22/1/6 24/1/6 20/1/6 18/1/6
f 26/1/1 28/1/1 27/1/1 25/1/1
f 28/1/2 32/1/2 31/1/2 27/1/2
f 32/1/3 30/1/3 29/1/3 31/1/3
f 30/1/4 26/1/4 25/1/4 29/1/4
f 25/1/5 27/1/5 31/1/5 29/1/5
f 30/1/6 32/1/6 28/1/6 26/1/6
f 34/1/1 36/1/1 35/1/1 33/1/1
f 36/1/2 40/1/2 39/1/2 35/1/2
f 40/1/3 38/1/3 37/1/3 39/1/3
f 38/1/4 34/1/4 33/1/4 37/1/4
f 33/1/5 35/1/5 39/1/5 37/1/5
f 38/1/6 40/1/6 36/1/6 34/1/6
f 42/1/1 44/1/1 43/1/1 41/1/1
f 44/1/2 48/1/2 47/1/2 43/1/2
f 48/1/3 46/1/3 45/1/3 47/1/3
f 46/1/4 42/1/4 41/1/4 45/1/4
f 41/1/5 43/1/5 47/1/5 45/1/5
f 46/1/6 48/1/6 44/1/6 42/1/6
f 50/1/1 52/1/1 51/1/1 49/1/1
f 52/1/2 56/1/2 55/1/2 51/1/2
f 56/1/3 54/1/3 53/1/3 55/1/3
f 54/1/4 50/1/4 49/1/4 53/1/4
f 49/1/5 51/1/5 55/1/5 53/1/5
f 54/1/6 56/1/6 52/1/6 50/1/6
f 58/1/1 60/1/1 59/1/1 57/1/1
f 60/1/2 64/1/2 63/1/2 59/1/2
f 64/1/3 62/1/3 61/1/3 63/1/3
f 62/1/4 58/1/4 57/1/4 61/1/4
f 57/1/5 59/1/5 63/1/5 61/1/5
f 62/1/6 64/1/6 60/1/6 58/1/6
f 66/1/1 68/1/1 67/1/1 65/1/1
f 68/1/2 72/1/2 71/1/2 67/1/2
f 72/1/3 70/1/3 69/1/3 71/1/3
f 70/1/4 66/1/4 65/1/4 69/1/4
f 65/1/5 67/1/5 71/1/5 69/1/5
f 70/1/6 72/1/6 68/1/6 66/1/6
f 74/1/1 76/1/1 75/1/1 73/1/1
f 76/1/2 80/1/2 79/1/2 75/1/2
f 80/1/3 78/1/3 77/1/3 79/1/3
f 78/1/4 74/1/4 73/1/4 77/1/4
f 73/1/5 75/1/5 79/1/5 77/1/5
f 78/1/6 80/1/6 76/1/6 74/1/6
f 82/1/1 84/1/1 83/1/1 81/1/1
f 84/1/2 88/1/2 87/1/2 83/1/2
f 88/1/3 86/1/3 85/1/3 87/1/3
f 86/1/4 82/1/4 81/1/4 85/1/4
f 81/1/5 83/1/5 87/1/5 85/1/5
f 86/1/6 88/1/6 84/1/6 82/1/6
f 90/1/1 92/1/1 91/1/1 89/1/1
f 92/1/2 96/1/2 95/1/2 91/1/2
f 96/1/3 94/1/3 93/1/3 95/1/3
f 94/1/4 90/1/4 89/1/4 93/1/4
f 89/1/5 91/1/5 95/1/5 93/1/5
f 94/1/6 96/1/6 92/1/6 90/1/6
f 98/1/1 100/1/1 99/1/1 97/1/1
f 100/1/2 104/1/2 103/1/2 99/1/2
f 104/1/3 102/1/3 101/1/3 103/1/3
f 102/1/4 98/1/4 97/1/4 101/1/4
f 97/1/5 99/1/5 103/1/5 101/1/5
f 102/1/6 104/1/6 100/1/6 98/1/6
f 106/1/1 108/1/1 107/1/1 105/1/1
f 108/1/2 112/1/2 111/1/2 107/1/2
f 112/1/3 110/1/3 109/1/3 111/1/3
f 110/1/4 106/1/4 105/1/4 109/1/4
f 105/1/5 107/1/5 111/1/5 109/1/5
f 110/1/6 112/1/6 108/1/6 106/1/6
f 114/1/1 116/1/1 115/1/1 113/1/1
f 116/1/2 120/1/2 119/1/2 115/1/2
f 120/1/3 118/1/3 117/1/3 119/1/3
f 118/1/4 114/1/4 113/1/4 117/1/4
f 113/1/5 115/1/5 119/1/5 117/1/5
f 118/1/6 120/1/6 116/1/6 114/1/6
f 122/1/1 124/1/1 123/1/1 121/1/1
f 124/1/2 128/1/2 127/1/2 123/1/2
f 128/1/3 126/1/3 125/1/3 127/1/3
f 126/1/4 122/1/4 121/1/4 125/1/4
f 121/1/5 123/1/5 127/1/5 125/1/5
f 126/1/6 128/1/6 124/1/6 122/1/6
f 130/1/1 132/1/1 131/1/1 129/1/1
f 132/1/2 136/1/2 135/1/2 131/1/2
f 136/1/3 134/1/3 133/1/3 135/1/3
f 134/1/4 130/1/4 129/1/4 133/1/4
f 129/1/5 131/1/5 135/1/5 133/1/5
f 134/1/6 136/1/6 132/1/6 130/1/6
f 138/1/1 140/1/1 139/1/1 137/1/1
f 140/1/2 144/1/2 143/1/2 139/1/2
f 144/1/3 142/1/3 141/1/3 143/1/3
f 142/1/4 138/1/4 137/1/4 141/1/4
f 137/1/5 139/1/5 143/1/5 141/1/5
f 142/1/6 144/1/6 140/1/6 138/1/6
f 146/1/1 148/1/1 147/1/1 145/1/1
f 148/1/2 152/1/2 151/1/2 147/1/2
f 152/1/3 150/1/3 149/1/3 151/1/3
f 150/1/4 146/1/4 145/1/4 149/1/4
f 145/1/5 147/1/5 151/1/5 149/1/5
f 150/1/6 152/1/6 148/1/6 146/1/6
f 154/1/1 156/1/1 155/1/1 153/1/1
f 156/1/2 160/1/2 159/1/2 155/1/2
f 160/1/3 158/1/3 157/1/3 159/1/3
f 158/1/4 154/1/4 153/1/4 157/1/4
f 153/1/5 155/1/5 159/1/5 157/1/5
f 158/1/6 160/1/6 156/1/6 154/1/6
f 162/1/1 164/1/1 163/1/1 161/1/1
f 164/1/2 168/1/2 167/1/2 163/1/2
f 168/1/3 166/1/3 165/1/3 167/1/3
f 166/1/4 162/1/4 161/1/4 165/1/4
f 161/1/5 163/1/5 167/1/5 165/1/5
f 166/1/6 168/1/6 164/1/6 162/1/6
f 170/1/1 172/1/1 171/1/1 169/1/1
f 172/1/2 176/1/2 175/1/2 171/1/2
f 176/1/3 174/1/3 173/1/3 175/1/3
f 174/1/4 170/1/4 169/1/4 173/1/4
f 169/1/5 171/1/5 175/1/5 173/1/5
f 174/1/6 176/1/6 172/1/6 170/1/6
f 178/2/1 180/3/1 179/4/1 177/5/1
f 180/6/7 184/1/7 183/7/7 179/8/7
f 184/9/3 182/10/3 181/11/3 183/12/3
f 182/13/8 178/14/8 177/8/8 181/7/8
f 181/15/9 177/16/9 186/17/9 188/18/9
f 180/3/5 178/2/5 189/2/5 190/3/5
f 186/17/5 185/14/5 187/13/5 188/18/5
f 183/12/3 181/11/3 188/19/3 187/20/3
f 177/5/1 179/4/1 185/21/1 186/22/1
f 179/16/10 183/15/10 187/23/10 185/24/10
f 189/14/4 192/13/4 196/13/4 193/14/4
f 178/14/5 182/13/5 192/13/5 189/14/5
f 184/1/5 180/6/5 190/6/5 191/1/5
f 182/10/5 184/9/5 191/9/5 192/10/5
f 196/25/6 195/26/6 194/27/6 193/28/6
f 191/1/2 190/6/2 194/6/2 195/1/2
f 192/10/3 191/9/3 195/9/3 196/10/3
f 190/3/1 189/2/1 193/2/1 194/3/1
