# Blender v2.75 (sub 0) OBJ File: 'Base.blend'
# www.blender.org
mtllib 6.mtl
o Cube_Cube.019
v -5.471287 -0.933034 0.067577
v -5.471287 1.234314 0.067577
v -5.471287 -0.933034 -0.067577
v -5.471287 1.234314 -0.067577
v 8.021856 -0.933034 0.067577
v 8.021856 1.234314 0.067577
v 8.021856 -0.933034 -0.067577
v 8.021856 1.234314 -0.067577
v -5.471287 -1.238258 -0.492565
v -5.471287 -1.238258 0.492565
v 8.021856 -1.238258 -0.492565
v 8.021856 -1.238258 0.492565
vt 0.904624 0.000000
vt 0.923164 0.000000
vt 0.923164 0.212989
vt 0.904624 0.212989
vt 0.000000 1.000000
vt 0.000000 0.000000
vt 0.297300 0.000000
vt 0.297300 1.000000
vt 0.904624 0.242984
vt 0.923164 0.242984
vt 0.923164 0.455973
vt 0.904624 0.455973
vt 0.594601 0.000000
vt 0.594601 1.000000
vt 0.788031 0.000000
vt 0.788031 1.000000
vt 0.729734 1.000000
vt 0.729734 0.000000
vt 0.981460 0.000000
vt 1.000000 0.000000
vt 1.000000 1.000000
vt 0.981461 1.000000
vt 0.981460 0.485968
vt 0.846328 0.485968
vt 0.981460 0.242984
vt 0.846328 0.242984
vt 0.846327 0.000000
vt 0.846328 1.000000
vn -1.000000 0.000000 0.000000
vn 0.000000 0.000000 -1.000000
vn 1.000000 0.000000 0.000000
vn 0.000000 0.000000 1.000000
vn 0.000000 0.812200 0.583300
vn 0.000000 1.000000 0.000000
vn 0.000000 -1.000000 0.000000
vn 0.000000 0.812200 -0.583300
usemtl None
s off
f 2/1/1 4/2/1 3/3/1 1/4/1
f 4/5/2 8/6/2 7/7/2 3/8/2
f 8/9/3 6/10/3 5/11/3 7/12/3
f 6/13/4 2/14/4 1/8/4 5/7/4
f 5/15/5 1/16/5 10/17/5 12/18/5
f 6/19/6 8/20/6 4/21/6 2/22/6
f 10/17/7 9/14/7 11/13/7 12/18/7
f 7/12/3 5/11/3 12/23/3 11/24/3
f 1/4/1 3/3/1 9/25/1 10/26/1
f 3/16/8 7/15/8 11/27/8 9/28/8
